<mxfile host="app.diagrams.net" modified="2023-07-05T08:33:12.177Z" agent="Mozilla/5.0 (Windows NT 10.0; Win64; x64) AppleWebKit/537.36 (KHTML, like Gecko) Chrome/114.0.0.0 Safari/537.36 Edg/114.0.1823.67" etag="CbP4t0_07xTsgBNDpu4k" version="21.5.2" type="github">
  <diagram name="第 1 页" id="SIFgmD8ATIWaHhhkfsLB">
    <mxGraphModel dx="1733" dy="1008" grid="1" gridSize="10" guides="1" tooltips="1" connect="1" arrows="1" fold="1" page="1" pageScale="1" pageWidth="827" pageHeight="1169" math="0" shadow="0">
      <root>
        <mxCell id="0" />
        <mxCell id="1" parent="0" />
        <mxCell id="Ao3cHf5-PP3yb1i8T6EV-1" value="" style="edgeStyle=orthogonalEdgeStyle;rounded=0;orthogonalLoop=1;jettySize=auto;html=1;entryX=0;entryY=0.5;entryDx=0;entryDy=0;curved=1;" edge="1" parent="1" source="Ao3cHf5-PP3yb1i8T6EV-9" target="Ao3cHf5-PP3yb1i8T6EV-13">
          <mxGeometry relative="1" as="geometry" />
        </mxCell>
        <mxCell id="Ao3cHf5-PP3yb1i8T6EV-2" style="edgeStyle=orthogonalEdgeStyle;rounded=0;orthogonalLoop=1;jettySize=auto;html=1;entryX=0;entryY=0.5;entryDx=0;entryDy=0;curved=1;" edge="1" parent="1" source="Ao3cHf5-PP3yb1i8T6EV-9" target="Ao3cHf5-PP3yb1i8T6EV-17">
          <mxGeometry relative="1" as="geometry" />
        </mxCell>
        <mxCell id="Ao3cHf5-PP3yb1i8T6EV-3" style="edgeStyle=orthogonalEdgeStyle;rounded=0;orthogonalLoop=1;jettySize=auto;html=1;curved=1;" edge="1" parent="1" source="Ao3cHf5-PP3yb1i8T6EV-9" target="Ao3cHf5-PP3yb1i8T6EV-22">
          <mxGeometry relative="1" as="geometry" />
        </mxCell>
        <mxCell id="Ao3cHf5-PP3yb1i8T6EV-4" style="edgeStyle=orthogonalEdgeStyle;rounded=0;orthogonalLoop=1;jettySize=auto;html=1;entryX=0;entryY=0.5;entryDx=0;entryDy=0;curved=1;" edge="1" parent="1" source="Ao3cHf5-PP3yb1i8T6EV-9" target="Ao3cHf5-PP3yb1i8T6EV-31">
          <mxGeometry relative="1" as="geometry" />
        </mxCell>
        <mxCell id="Ao3cHf5-PP3yb1i8T6EV-5" style="edgeStyle=orthogonalEdgeStyle;rounded=0;orthogonalLoop=1;jettySize=auto;html=1;entryX=1;entryY=0.5;entryDx=0;entryDy=0;curved=1;" edge="1" parent="1" source="Ao3cHf5-PP3yb1i8T6EV-9" target="Ao3cHf5-PP3yb1i8T6EV-40">
          <mxGeometry relative="1" as="geometry" />
        </mxCell>
        <mxCell id="Ao3cHf5-PP3yb1i8T6EV-6" style="edgeStyle=orthogonalEdgeStyle;rounded=0;orthogonalLoop=1;jettySize=auto;html=1;entryX=1;entryY=0.5;entryDx=0;entryDy=0;curved=1;" edge="1" parent="1" source="Ao3cHf5-PP3yb1i8T6EV-9" target="Ao3cHf5-PP3yb1i8T6EV-49">
          <mxGeometry relative="1" as="geometry" />
        </mxCell>
        <mxCell id="Ao3cHf5-PP3yb1i8T6EV-7" style="edgeStyle=orthogonalEdgeStyle;rounded=0;orthogonalLoop=1;jettySize=auto;html=1;entryX=1;entryY=0.5;entryDx=0;entryDy=0;curved=1;" edge="1" parent="1" source="Ao3cHf5-PP3yb1i8T6EV-9" target="Ao3cHf5-PP3yb1i8T6EV-58">
          <mxGeometry relative="1" as="geometry" />
        </mxCell>
        <mxCell id="Ao3cHf5-PP3yb1i8T6EV-8" style="edgeStyle=orthogonalEdgeStyle;rounded=0;orthogonalLoop=1;jettySize=auto;html=1;entryX=1;entryY=0.5;entryDx=0;entryDy=0;curved=1;" edge="1" parent="1" source="Ao3cHf5-PP3yb1i8T6EV-9" target="Ao3cHf5-PP3yb1i8T6EV-67">
          <mxGeometry relative="1" as="geometry" />
        </mxCell>
        <mxCell id="Ao3cHf5-PP3yb1i8T6EV-9" value="&lt;font style=&quot;font-size: 16px;&quot;&gt;煤矿生产技术综合管理信息系统&lt;/font&gt;" style="rounded=1;whiteSpace=wrap;html=1;fontSize=16;shadow=0;sketch=1;curveFitting=1;jiggle=2;glass=0;" vertex="1" parent="1">
          <mxGeometry x="614" y="442" width="120" height="60" as="geometry" />
        </mxCell>
        <mxCell id="Ao3cHf5-PP3yb1i8T6EV-13" value="系统管理" style="whiteSpace=wrap;html=1;rounded=1;fontSize=16;shadow=0;sketch=1;curveFitting=1;jiggle=2;glass=0;" vertex="1" parent="1">
          <mxGeometry x="890" y="203" width="120" height="60" as="geometry" />
        </mxCell>
        <mxCell id="Ao3cHf5-PP3yb1i8T6EV-17" value="煤矿基础信息" style="whiteSpace=wrap;html=1;rounded=1;fontSize=16;shadow=0;sketch=1;curveFitting=1;jiggle=2;glass=0;" vertex="1" parent="1">
          <mxGeometry x="890" y="350" width="120" height="60" as="geometry" />
        </mxCell>
        <mxCell id="Ao3cHf5-PP3yb1i8T6EV-22" value="操作规程管理" style="whiteSpace=wrap;html=1;rounded=1;fontSize=16;shadow=0;sketch=1;curveFitting=1;jiggle=2;glass=0;" vertex="1" parent="1">
          <mxGeometry x="870" y="502" width="120" height="60" as="geometry" />
        </mxCell>
        <mxCell id="Ao3cHf5-PP3yb1i8T6EV-31" value="作业规程管理" style="whiteSpace=wrap;html=1;rounded=1;fontSize=16;shadow=0;sketch=1;curveFitting=1;jiggle=2;glass=0;" vertex="1" parent="1">
          <mxGeometry x="850" y="640" width="120" height="60" as="geometry" />
        </mxCell>
        <mxCell id="Ao3cHf5-PP3yb1i8T6EV-40" value="机电设备管理" style="whiteSpace=wrap;html=1;rounded=1;fontSize=16;shadow=0;sketch=1;curveFitting=1;jiggle=2;glass=0;" vertex="1" parent="1">
          <mxGeometry x="324" y="143" width="120" height="60" as="geometry" />
        </mxCell>
        <mxCell id="Ao3cHf5-PP3yb1i8T6EV-49" value="煤质资料管理" style="whiteSpace=wrap;html=1;rounded=1;fontSize=16;shadow=0;sketch=1;curveFitting=1;jiggle=2;glass=0;" vertex="1" parent="1">
          <mxGeometry x="324" y="330" width="120" height="60" as="geometry" />
        </mxCell>
        <mxCell id="Ao3cHf5-PP3yb1i8T6EV-58" value="数字化图纸管理" style="whiteSpace=wrap;html=1;rounded=1;fontSize=16;shadow=0;sketch=1;curveFitting=1;jiggle=2;glass=0;" vertex="1" parent="1">
          <mxGeometry x="310" y="540" width="120" height="60" as="geometry" />
        </mxCell>
        <mxCell id="Ao3cHf5-PP3yb1i8T6EV-67" value="数字档案管理" style="whiteSpace=wrap;html=1;rounded=1;fontSize=16;shadow=0;sketch=1;curveFitting=1;jiggle=2;glass=0;" vertex="1" parent="1">
          <mxGeometry x="310" y="680" width="120" height="60" as="geometry" />
        </mxCell>
      </root>
    </mxGraphModel>
  </diagram>
</mxfile>
